<mxfile host="app.diagrams.net" modified="2023-05-17T04:40:17.338Z" agent="Mozilla/5.0 (Macintosh; Intel Mac OS X 10.15; rv:109.0) Gecko/20100101 Firefox/113.0" version="21.3.2" etag="FaQRimAXc89ujj8gnGII" type="github">
  <diagram name="Halaman-1" id="X1bIzQA3mFPZUP2WRdlf">
    <mxGraphModel>
      <root>
        <mxCell id="0" />
        <mxCell id="1" parent="0" />
      </root>
    </mxGraphModel>
  </diagram>
</mxfile>
